<svg width="26" height="26" viewBox="0 0 26 26" fill="none" xmlns="http://www.w3.org/2000/svg">
<g clip-path="url(#clip0_1004_191)">
<path d="M13 5.25073C8.03242 5.25073 3.52756 7.96854 0.203437 12.383C-0.0678122 12.7446 -0.0678122 13.2499 0.203437 13.6116C3.52756 18.0313 8.03242 20.7491 13 20.7491C17.9676 20.7491 22.4724 18.0313 25.7966 13.6169C26.0678 13.2552 26.0678 12.75 25.7966 12.3883C22.4724 7.96854 17.9676 5.25073 13 5.25073ZM13.3563 18.4568C10.0588 18.6643 7.33569 15.9464 7.54311 12.6436C7.71331 9.92047 9.92053 7.71325 12.6437 7.54305C15.9412 7.33562 18.6643 10.0534 18.4569 13.3563C18.2814 16.0741 16.0742 18.2813 13.3563 18.4568ZM13.1915 15.9358C11.4151 16.0475 9.94712 14.5849 10.0641 12.8085C10.1545 11.3405 11.3459 10.1545 12.8138 10.0588C14.5903 9.94706 16.0582 11.4097 15.9412 13.1861C15.8455 14.6593 14.6541 15.8454 13.1915 15.9358Z" fill="white"/>
</g>
<defs>
<clipPath id="clip0_1004_191">
<rect width="26" height="26" fill="white"/>
</clipPath>
</defs>
</svg>
