<svg width="548" height="547" viewBox="0 0 548 547" fill="none" xmlns="http://www.w3.org/2000/svg">
<path d="M31.1448 146.451C11.4264 184.226 0.277664 227.185 0.277649 272.747C0.277499 420.175 117.004 540.339 263.08 545.863L263.081 485.07C150.56 479.59 61.0143 386.626 61.0143 272.747C61.0143 238.249 69.2321 205.67 83.8168 176.861L31.1448 146.451Z" fill="#FFED4E"/>
<path d="M463.364 176.161L516.022 145.759C536.152 183.838 547.551 227.245 547.551 273.315C547.551 420.349 431.446 540.266 285.916 546.385L285.916 485.578C397.887 479.514 486.814 386.799 486.814 273.315C486.814 238.309 478.353 205.28 463.364 176.161Z" fill="#A5F474"/>
<path d="M274.236 1.95408e-09C371.182 -0.000362639 456.338 50.4738 504.861 126.577L452.19 156.987C414.222 99.0241 348.7 60.7364 274.236 60.7365C199.261 60.7366 133.352 99.5504 95.5056 158.18L42.8488 127.779C91.2384 51.006 176.78 -0.000222271 274.236 1.95408e-09Z" fill="#36D6FA"/>
<path d="M142.464 156.544C141.333 157.664 139.957 158.224 138.336 158.224C136.715 158.224 135.339 157.664 134.208 156.544C133.088 155.413 132.528 154.032 132.528 152.4C132.528 150.768 133.088 149.392 134.208 148.272C135.339 147.141 136.715 146.576 138.336 146.576C139.957 146.576 141.333 147.141 142.464 148.272C143.595 149.392 144.16 150.768 144.16 152.4C144.16 154.032 143.595 155.413 142.464 156.544ZM135.76 155.04C136.453 155.723 137.312 156.064 138.336 156.064C139.36 156.064 140.219 155.723 140.912 155.04C141.605 154.347 141.952 153.467 141.952 152.4C141.952 151.333 141.605 150.453 140.912 149.76C140.219 149.067 139.36 148.72 138.336 148.72C137.312 148.72 136.453 149.067 135.76 149.76C135.067 150.453 134.72 151.333 134.72 152.4C134.72 153.467 135.067 154.347 135.76 155.04ZM150 151.04C151.088 151.04 151.979 151.365 152.672 152.016C153.365 152.656 153.712 153.488 153.712 154.512C153.712 155.547 153.365 156.389 152.672 157.04C151.979 157.68 151.088 158 150 158H145.712V146.8H152.752V148.912H147.92V151.04H150ZM150 155.936C150.437 155.936 150.8 155.813 151.088 155.568C151.376 155.312 151.52 154.96 151.52 154.512C151.52 154.064 151.376 153.717 151.088 153.472C150.8 153.227 150.437 153.104 150 153.104H147.92V155.936H150ZM159.247 146.8C160.325 146.8 161.231 147.163 161.967 147.888C162.703 148.613 163.071 149.504 163.071 150.56C163.071 151.616 162.703 152.507 161.967 153.232C161.231 153.957 160.325 154.32 159.247 154.32H157.279V158H155.071V146.8H159.247ZM159.247 152.256C159.717 152.256 160.106 152.096 160.415 151.776C160.725 151.445 160.879 151.04 160.879 150.56C160.879 150.069 160.725 149.664 160.415 149.344C160.106 149.024 159.717 148.864 159.247 148.864H157.279V152.256H159.247ZM170.568 158L169.896 155.984H165.432L164.76 158H162.376L166.296 146.8H169.032L172.968 158H170.568ZM166.136 153.92H169.208L167.672 149.344L166.136 153.92ZM179.992 152.208C181.058 152.773 181.592 153.659 181.592 154.864C181.592 155.867 181.213 156.677 180.456 157.296C179.698 157.915 178.722 158.224 177.528 158.224C175.448 158.224 174.056 157.344 173.352 155.584L175.256 154.512C175.597 155.6 176.354 156.144 177.528 156.144C178.136 156.144 178.6 156.016 178.92 155.76C179.24 155.504 179.4 155.157 179.4 154.72C179.4 154.283 179.24 153.936 178.92 153.68C178.61 153.424 178.162 153.296 177.576 153.296H176.184V151.328H177.24C177.794 151.328 178.226 151.211 178.536 150.976C178.845 150.731 179 150.4 179 149.984C179 149.568 178.866 149.243 178.6 149.008C178.333 148.763 177.938 148.64 177.416 148.64C176.456 148.64 175.784 149.109 175.4 150.048L173.528 148.96C174.285 147.371 175.581 146.576 177.416 146.576C178.525 146.576 179.432 146.875 180.136 147.472C180.84 148.069 181.192 148.859 181.192 149.84C181.192 150.843 180.792 151.632 179.992 152.208ZM192.448 156.544C191.318 157.664 189.942 158.224 188.32 158.224C186.699 158.224 185.323 157.664 184.192 156.544C183.072 155.413 182.512 154.032 182.512 152.4C182.512 150.768 183.072 149.392 184.192 148.272C185.323 147.141 186.699 146.576 188.32 146.576C189.942 146.576 191.318 147.141 192.448 148.272C193.579 149.392 194.144 150.768 194.144 152.4C194.144 154.032 193.579 155.413 192.448 156.544ZM185.744 155.04C186.438 155.723 187.296 156.064 188.32 156.064C189.344 156.064 190.203 155.723 190.896 155.04C191.59 154.347 191.936 153.467 191.936 152.4C191.936 151.333 191.59 150.453 190.896 149.76C190.203 149.067 189.344 148.72 188.32 148.72C187.296 148.72 186.438 149.067 185.744 149.76C185.051 150.453 184.704 151.333 184.704 152.4C184.704 153.467 185.051 154.347 185.744 155.04ZM202.464 152.192C203.446 152.757 203.936 153.611 203.936 154.752C203.936 155.701 203.6 156.48 202.928 157.088C202.256 157.696 201.43 158 200.448 158H195.696V146.8H200.112C201.072 146.8 201.878 147.099 202.528 147.696C203.19 148.283 203.52 149.035 203.52 149.952C203.52 150.88 203.168 151.627 202.464 152.192ZM200.112 148.864H197.904V151.328H200.112C200.454 151.328 200.736 151.211 200.96 150.976C201.195 150.741 201.312 150.448 201.312 150.096C201.312 149.744 201.2 149.451 200.976 149.216C200.752 148.981 200.464 148.864 200.112 148.864ZM200.448 155.936C200.822 155.936 201.131 155.813 201.376 155.568C201.622 155.312 201.744 154.992 201.744 154.608C201.744 154.235 201.622 153.925 201.376 153.68C201.131 153.424 200.822 153.296 200.448 153.296H197.904V155.936H200.448ZM212.584 158L211.912 155.984H207.448L206.776 158H204.392L208.312 146.8H211.048L214.984 158H212.584ZM208.152 153.92H211.224L209.688 149.344L208.152 153.92ZM222.439 146.8H224.631V158H222.439V153.36H218.279V158H216.071V146.8H218.279V151.248H222.439V146.8ZM233.192 158V151.168L228.392 158H226.712V146.8H228.92V153.648L233.72 146.8H235.4V158H233.192ZM239.686 155.888H244.406V158H237.478V146.8H244.326V148.912H239.686V151.296H243.926V153.376H239.686V155.888Z" fill="#314159"/>
<path d="M150.352 383.224C148.667 383.224 147.275 382.664 146.176 381.544C145.077 380.424 144.528 379.043 144.528 377.4C144.528 375.747 145.077 374.365 146.176 373.256C147.275 372.136 148.667 371.576 150.352 371.576C151.365 371.576 152.299 371.816 153.152 372.296C154.016 372.765 154.688 373.405 155.168 374.216L153.264 375.32C152.987 374.819 152.592 374.429 152.08 374.152C151.568 373.864 150.992 373.72 150.352 373.72C149.264 373.72 148.384 374.061 147.712 374.744C147.051 375.427 146.72 376.312 146.72 377.4C146.72 378.477 147.051 379.357 147.712 380.04C148.384 380.723 149.264 381.064 150.352 381.064C150.992 381.064 151.568 380.925 152.08 380.648C152.603 380.36 152.997 379.971 153.264 379.48L155.168 380.584C154.688 381.395 154.021 382.04 153.168 382.52C152.315 382.989 151.376 383.224 150.352 383.224ZM165.839 381.544C164.708 382.664 163.332 383.224 161.711 383.224C160.09 383.224 158.714 382.664 157.583 381.544C156.463 380.413 155.903 379.032 155.903 377.4C155.903 375.768 156.463 374.392 157.583 373.272C158.714 372.141 160.09 371.576 161.711 371.576C163.332 371.576 164.708 372.141 165.839 373.272C166.97 374.392 167.535 375.768 167.535 377.4C167.535 379.032 166.97 380.413 165.839 381.544ZM159.135 380.04C159.828 380.723 160.687 381.064 161.711 381.064C162.735 381.064 163.594 380.723 164.287 380.04C164.98 379.347 165.327 378.467 165.327 377.4C165.327 376.333 164.98 375.453 164.287 374.76C163.594 374.067 162.735 373.72 161.711 373.72C160.687 373.72 159.828 374.067 159.135 374.76C158.442 375.453 158.095 376.333 158.095 377.4C158.095 378.467 158.442 379.347 159.135 380.04ZM177.455 380.888H178.655V385.144H176.447V383H169.087V371.8H171.295V380.888H175.247V371.8H177.455V380.888ZM186.614 383V376.168L181.814 383H180.134V371.8H182.342V378.648L187.142 371.8H188.822V383H186.614ZM198.099 383L197.427 380.984H192.963L192.291 383H189.907L193.827 371.8H196.563L200.499 383H198.099ZM193.667 378.92H196.739L195.203 374.344L193.667 378.92ZM200.848 383V380.952C201.509 381.048 202.005 380.915 202.336 380.552C202.667 380.189 202.832 379.48 202.832 378.424V371.8H210.448V383H208.256V373.912H205.024V378.36C205.024 379.331 204.907 380.147 204.672 380.808C204.437 381.469 204.112 381.96 203.696 382.28C203.291 382.6 202.853 382.813 202.384 382.92C201.925 383.027 201.413 383.053 200.848 383ZM216.7 375.48C217.778 375.48 218.684 375.843 219.42 376.568C220.156 377.293 220.524 378.184 220.524 379.24C220.524 380.296 220.156 381.187 219.42 381.912C218.684 382.637 217.778 383 216.7 383H212.524V371.8H214.732V375.48H216.7ZM216.7 380.936C217.17 380.936 217.559 380.776 217.868 380.456C218.178 380.136 218.332 379.731 218.332 379.24C218.332 378.76 218.178 378.36 217.868 378.04C217.559 377.709 217.17 377.544 216.7 377.544H214.732V380.936H216.7ZM228.33 371.8H230.522V383H228.33V378.36H224.17V383H221.962V371.8H224.17V376.248H228.33V371.8ZM242.027 381.544C240.896 382.664 239.52 383.224 237.899 383.224C236.277 383.224 234.901 382.664 233.771 381.544C232.651 380.413 232.09 379.032 232.09 377.4C232.09 375.768 232.651 374.392 233.771 373.272C234.901 372.141 236.277 371.576 237.899 371.576C239.52 371.576 240.896 372.141 242.027 373.272C243.157 374.392 243.723 375.768 243.723 377.4C243.723 379.032 243.157 380.413 242.027 381.544ZM235.323 380.04C236.016 380.723 236.875 381.064 237.899 381.064C238.923 381.064 239.781 380.723 240.475 380.04C241.168 379.347 241.515 378.467 241.515 377.4C241.515 376.333 241.168 375.453 240.475 374.76C239.781 374.067 238.923 373.72 237.899 373.72C236.875 373.72 236.016 374.067 235.323 374.76C234.629 375.453 234.283 376.333 234.283 377.4C234.283 378.467 234.629 379.347 235.323 380.04ZM247.482 380.888H252.202V383H245.274V371.8H252.122V373.912H247.482V376.296H251.722V378.376H247.482V380.888ZM149.216 392.8C150.293 392.8 151.2 393.163 151.936 393.888C152.672 394.613 153.04 395.504 153.04 396.56C153.04 397.616 152.672 398.507 151.936 399.232C151.2 399.957 150.293 400.32 149.216 400.32H147.248V404H145.04V392.8H149.216ZM149.216 398.256C149.685 398.256 150.075 398.096 150.384 397.776C150.693 397.445 150.848 397.04 150.848 396.56C150.848 396.069 150.693 395.664 150.384 395.344C150.075 395.024 149.685 394.864 149.216 394.864H147.248V398.256H149.216ZM160.537 404L159.865 401.984H155.401L154.729 404H152.345L156.265 392.8H159.001L162.937 404H160.537ZM156.105 399.92H159.177L157.641 395.344L156.105 399.92ZM169.96 398.208C171.027 398.773 171.56 399.659 171.56 400.864C171.56 401.867 171.182 402.677 170.424 403.296C169.667 403.915 168.691 404.224 167.496 404.224C165.416 404.224 164.024 403.344 163.32 401.584L165.224 400.512C165.566 401.6 166.323 402.144 167.496 402.144C168.104 402.144 168.568 402.016 168.888 401.76C169.208 401.504 169.368 401.157 169.368 400.72C169.368 400.283 169.208 399.936 168.888 399.68C168.579 399.424 168.131 399.296 167.544 399.296H166.152V397.328H167.208C167.763 397.328 168.195 397.211 168.504 396.976C168.814 396.731 168.968 396.4 168.968 395.984C168.968 395.568 168.835 395.243 168.568 395.008C168.302 394.763 167.907 394.64 167.384 394.64C166.424 394.64 165.752 395.109 165.368 396.048L163.496 394.96C164.254 393.371 165.55 392.576 167.384 392.576C168.494 392.576 169.4 392.875 170.104 393.472C170.808 394.069 171.16 394.859 171.16 395.84C171.16 396.843 170.76 397.632 169.96 398.208ZM179.761 398.192C180.742 398.757 181.233 399.611 181.233 400.752C181.233 401.701 180.897 402.48 180.225 403.088C179.553 403.696 178.726 404 177.745 404H172.993V392.8H177.409C178.369 392.8 179.174 393.099 179.825 393.696C180.486 394.283 180.817 395.035 180.817 395.952C180.817 396.88 180.465 397.627 179.761 398.192ZM177.409 394.864H175.201V397.328H177.409C177.75 397.328 178.033 397.211 178.257 396.976C178.492 396.741 178.609 396.448 178.609 396.096C178.609 395.744 178.497 395.451 178.273 395.216C178.049 394.981 177.761 394.864 177.409 394.864ZM177.745 401.936C178.118 401.936 178.428 401.813 178.673 401.568C178.918 401.312 179.041 400.992 179.041 400.608C179.041 400.235 178.918 399.925 178.673 399.68C178.428 399.424 178.118 399.296 177.745 399.296H175.201V401.936H177.745ZM189.161 404V397.168L184.361 404H182.681V392.8H184.889V399.648L189.689 392.8H191.369V404H189.161ZM200.854 392.8V394.912H197.83V404H195.622V394.912H192.614V392.8H200.854ZM208.567 404V397.168L203.767 404H202.087V392.8H204.295V399.648L209.095 392.8H210.775V404H208.567ZM215.061 401.888H219.781V404H212.853V392.8H219.701V394.912H215.061V397.296H219.301V399.376H215.061V401.888ZM152.448 413.8V415.912H149.424V425H147.216V415.912H144.208V413.8H152.448ZM155.889 422.888H160.609V425H153.681V413.8H160.529V415.912H155.889V418.296H160.129V420.376H155.889V422.888ZM166.341 413.8C167.418 413.8 168.325 414.163 169.061 414.888C169.797 415.613 170.165 416.504 170.165 417.56C170.165 418.616 169.797 419.507 169.061 420.232C168.325 420.957 167.418 421.32 166.341 421.32H164.373V425H162.165V413.8H166.341ZM166.341 419.256C166.81 419.256 167.2 419.096 167.509 418.776C167.818 418.445 167.973 418.04 167.973 417.56C167.973 417.069 167.818 416.664 167.509 416.344C167.2 416.024 166.81 415.864 166.341 415.864H164.373V419.256H166.341ZM175.779 413.8C176.856 413.8 177.763 414.163 178.499 414.888C179.235 415.613 179.602 416.504 179.602 417.56C179.602 418.616 179.235 419.507 178.499 420.232C177.763 420.957 176.856 421.32 175.779 421.32H173.811V425H171.603V413.8H175.779ZM175.779 419.256C176.248 419.256 176.637 419.096 176.947 418.776C177.256 418.445 177.411 418.04 177.411 417.56C177.411 417.069 177.256 416.664 176.947 416.344C176.637 416.024 176.248 415.864 175.779 415.864H173.811V419.256H175.779ZM187.52 425V418.168L182.72 425H181.04V413.8H183.248V420.648L188.048 413.8H189.728V425H187.52ZM199.214 413.8V415.912H196.19V425H193.982V415.912H190.974V413.8H199.214ZM209.23 423.544C208.099 424.664 206.723 425.224 205.102 425.224C203.48 425.224 202.104 424.664 200.974 423.544C199.854 422.413 199.294 421.032 199.294 419.4C199.294 417.768 199.854 416.392 200.974 415.272C202.104 414.141 203.48 413.576 205.102 413.576C206.723 413.576 208.099 414.141 209.23 415.272C210.36 416.392 210.926 417.768 210.926 419.4C210.926 421.032 210.36 422.413 209.23 423.544ZM202.526 422.04C203.219 422.723 204.078 423.064 205.102 423.064C206.126 423.064 206.984 422.723 207.678 422.04C208.371 421.347 208.718 420.467 208.718 419.4C208.718 418.333 208.371 417.453 207.678 416.76C206.984 416.067 206.126 415.72 205.102 415.72C204.078 415.72 203.219 416.067 202.526 416.76C201.832 417.453 201.486 418.333 201.486 419.4C201.486 420.467 201.832 421.347 202.526 422.04ZM216.654 413.8C217.731 413.8 218.638 414.163 219.374 414.888C220.11 415.613 220.477 416.504 220.477 417.56C220.477 418.616 220.11 419.507 219.374 420.232C218.638 420.957 217.731 421.32 216.654 421.32H214.686V425H212.478V413.8H216.654ZM216.654 419.256C217.123 419.256 217.512 419.096 217.822 418.776C218.131 418.445 218.286 418.04 218.286 417.56C218.286 417.069 218.131 416.664 217.822 416.344C217.512 416.024 217.123 415.864 216.654 415.864H214.686V419.256H216.654ZM228.395 425V418.168L223.595 425H221.915V413.8H224.123V420.648L228.923 413.8H230.603V425H228.395ZM234.697 412.776V410.984H239.337V412.776H234.697ZM239.161 425V418.168L234.361 425H232.681V413.8H234.889V420.648L239.689 413.8H241.369V425H239.161Z" fill="#314159"/>
<path d="M341.52 241V234.168L336.72 241H335.04V229.8H337.248V236.648L342.048 229.8H343.728V241H341.52ZM351.118 241.224C349.432 241.224 348.04 240.664 346.942 239.544C345.843 238.424 345.294 237.043 345.294 235.4C345.294 233.747 345.843 232.365 346.942 231.256C348.04 230.136 349.432 229.576 351.118 229.576C352.131 229.576 353.064 229.816 353.918 230.296C354.782 230.765 355.454 231.405 355.934 232.216L354.03 233.32C353.752 232.819 353.358 232.429 352.846 232.152C352.334 231.864 351.758 231.72 351.118 231.72C350.03 231.72 349.15 232.061 348.478 232.744C347.816 233.427 347.486 234.312 347.486 235.4C347.486 236.477 347.816 237.357 348.478 238.04C349.15 238.723 350.03 239.064 351.118 239.064C351.758 239.064 352.334 238.925 352.846 238.648C353.368 238.36 353.763 237.971 354.03 237.48L355.934 238.584C355.454 239.395 354.787 240.04 353.934 240.52C353.08 240.989 352.142 241.224 351.118 241.224ZM362.493 241.224C360.807 241.224 359.415 240.664 358.317 239.544C357.218 238.424 356.669 237.043 356.669 235.4C356.669 233.747 357.218 232.365 358.317 231.256C359.415 230.136 360.807 229.576 362.493 229.576C363.506 229.576 364.439 229.816 365.293 230.296C366.157 230.765 366.829 231.405 367.309 232.216L365.405 233.32C365.127 232.819 364.733 232.429 364.221 232.152C363.709 231.864 363.133 231.72 362.493 231.72C361.405 231.72 360.525 232.061 359.853 232.744C359.191 233.427 358.861 234.312 358.861 235.4C358.861 236.477 359.191 237.357 359.853 238.04C360.525 238.723 361.405 239.064 362.493 239.064C363.133 239.064 363.709 238.925 364.221 238.648C364.743 238.36 365.138 237.971 365.405 237.48L367.309 238.584C366.829 239.395 366.162 240.04 365.309 240.52C364.455 240.989 363.517 241.224 362.493 241.224ZM367.723 241V238.952C368.384 239.048 368.88 238.915 369.211 238.552C369.542 238.189 369.707 237.48 369.707 236.424V229.8H377.323V241H375.131V231.912H371.899V236.36C371.899 237.331 371.782 238.147 371.547 238.808C371.312 239.469 370.987 239.96 370.571 240.28C370.166 240.6 369.728 240.813 369.259 240.92C368.8 241.027 368.288 241.053 367.723 241ZM381.607 238.888H386.327V241H379.399V229.8H386.247V231.912H381.607V234.296H385.847V236.376H381.607V238.888ZM396.492 238.888H397.692V243.144H395.484V241H389.292V243.144H387.084V238.888H388.172C388.79 238.024 389.1 236.76 389.1 235.096V229.8H396.492V238.888ZM390.54 238.888H394.284V231.864H391.308V235.128C391.308 236.749 391.052 238.003 390.54 238.888ZM408.417 239.544C407.286 240.664 405.91 241.224 404.289 241.224C402.668 241.224 401.292 240.664 400.161 239.544C399.041 238.413 398.481 237.032 398.481 235.4C398.481 233.768 399.041 232.392 400.161 231.272C401.292 230.141 402.668 229.576 404.289 229.576C405.91 229.576 407.286 230.141 408.417 231.272C409.548 232.392 410.113 233.768 410.113 235.4C410.113 237.032 409.548 238.413 408.417 239.544ZM401.713 238.04C402.406 238.723 403.265 239.064 404.289 239.064C405.313 239.064 406.172 238.723 406.865 238.04C407.558 237.347 407.905 236.467 407.905 235.4C407.905 234.333 407.558 233.453 406.865 232.76C406.172 232.067 405.313 231.72 404.289 231.72C403.265 231.72 402.406 232.067 401.713 232.76C401.02 233.453 400.673 234.333 400.673 235.4C400.673 236.467 401.02 237.347 401.713 238.04ZM418.433 235.192C419.414 235.757 419.905 236.611 419.905 237.752C419.905 238.701 419.569 239.48 418.897 240.088C418.225 240.696 417.398 241 416.417 241H411.665V229.8H416.081C417.041 229.8 417.846 230.099 418.497 230.696C419.158 231.283 419.489 232.035 419.489 232.952C419.489 233.88 419.137 234.627 418.433 235.192ZM416.081 231.864H413.873V234.328H416.081C416.422 234.328 416.705 234.211 416.929 233.976C417.164 233.741 417.281 233.448 417.281 233.096C417.281 232.744 417.169 232.451 416.945 232.216C416.721 231.981 416.433 231.864 416.081 231.864ZM416.417 238.936C416.79 238.936 417.1 238.813 417.345 238.568C417.59 238.312 417.713 237.992 417.713 237.608C417.713 237.235 417.59 236.925 417.345 236.68C417.1 236.424 416.79 236.296 416.417 236.296H413.873V238.936H416.417ZM428.553 241L427.881 238.984H423.417L422.745 241H420.361L424.281 229.8H427.017L430.953 241H428.553ZM424.121 236.92H427.193L425.657 232.344L424.121 236.92ZM438.408 229.8H440.6V241H438.408V236.36H434.248V241H432.04V229.8H434.248V234.248H438.408V229.8ZM449.161 241V234.168L444.361 241H442.681V229.8H444.889V236.648L449.689 229.8H451.369V241H449.161ZM461.35 229.8V241H459.142V237.112H457.878L455.302 241H452.822L455.558 236.872C454.844 236.616 454.262 236.179 453.814 235.56C453.366 234.941 453.142 234.259 453.142 233.512C453.142 232.488 453.505 231.613 454.23 230.888C454.956 230.163 455.836 229.8 456.87 229.8H461.35ZM456.87 235.176H459.142V231.864H456.87C456.454 231.864 456.097 232.024 455.798 232.344C455.5 232.664 455.35 233.053 455.35 233.512C455.35 233.971 455.5 234.365 455.798 234.696C456.097 235.016 456.454 235.176 456.87 235.176ZM466.055 238.792L464.855 243.24H463.175L463.815 238.792H466.055ZM341.52 262V255.168L336.72 262H335.04V250.8H337.248V257.648L342.048 250.8H343.728V262H341.52ZM352.174 250.8H354.366V262H352.174V257.36H348.014V262H345.806V250.8H348.014V255.248H352.174V250.8ZM362.814 250.8H365.006V262H362.814V257.36H358.654V262H356.446V250.8H358.654V255.248H362.814V250.8ZM376.511 260.544C375.38 261.664 374.004 262.224 372.383 262.224C370.762 262.224 369.386 261.664 368.255 260.544C367.135 259.413 366.575 258.032 366.575 256.4C366.575 254.768 367.135 253.392 368.255 252.272C369.386 251.141 370.762 250.576 372.383 250.576C374.004 250.576 375.38 251.141 376.511 252.272C377.642 253.392 378.207 254.768 378.207 256.4C378.207 258.032 377.642 259.413 376.511 260.544ZM369.807 259.04C370.5 259.723 371.359 260.064 372.383 260.064C373.407 260.064 374.266 259.723 374.959 259.04C375.652 258.347 375.999 257.467 375.999 256.4C375.999 255.333 375.652 254.453 374.959 253.76C374.266 253.067 373.407 252.72 372.383 252.72C371.359 252.72 370.5 253.067 369.807 253.76C369.114 254.453 368.767 255.333 368.767 256.4C368.767 257.467 369.114 258.347 369.807 259.04ZM386.527 256.192C387.508 256.757 387.999 257.611 387.999 258.752C387.999 259.701 387.663 260.48 386.991 261.088C386.319 261.696 385.492 262 384.511 262H379.759V250.8H384.175C385.135 250.8 385.94 251.099 386.591 251.696C387.252 252.283 387.583 253.035 387.583 253.952C387.583 254.88 387.231 255.627 386.527 256.192ZM384.175 252.864H381.967V255.328H384.175C384.516 255.328 384.799 255.211 385.023 254.976C385.257 254.741 385.375 254.448 385.375 254.096C385.375 253.744 385.263 253.451 385.039 253.216C384.815 252.981 384.527 252.864 384.175 252.864ZM384.511 259.936C384.884 259.936 385.193 259.813 385.439 259.568C385.684 259.312 385.807 258.992 385.807 258.608C385.807 258.235 385.684 257.925 385.439 257.68C385.193 257.424 384.884 257.296 384.511 257.296H381.967V259.936H384.511ZM396.646 262L395.974 259.984H391.51L390.838 262H388.454L392.374 250.8H395.11L399.046 262H396.646ZM392.214 257.92H395.286L393.75 253.344L392.214 257.92ZM408.502 259.888H409.702V264.144H407.494V262H400.134V250.8H402.342V259.888H406.294V250.8H408.502V259.888ZM417.661 262V255.168L412.861 262H411.181V250.8H413.389V257.648L418.189 250.8H419.869V262H417.661ZM428.426 262V255.168L423.626 262H421.946V250.8H424.154V257.648L428.954 250.8H430.634V262H428.426Z" fill="#314159"/>
<path d="M43 127.38L151.6 189.303" stroke="#36D6FA" stroke-width="3"/>
<circle cx="151.5" cy="188.5" r="6.5" fill="#36D6FA"/>
<path d="M261.957 545.394L262.05 420.381" stroke="#FFED4E" stroke-width="3"/>
<circle r="6.5" transform="matrix(-0.494686 -0.869072 0.869069 -0.494691 261.401 420.865)" fill="#FFED4E"/>
<path d="M516 145.38L407.4 207.303" stroke="#A5F474" stroke-width="3"/>
<circle r="6.5" transform="matrix(-1 0 0 1 407.5 206.5)" fill="#A5F474"/>
</svg>
