<svg width="32" height="32" viewBox="0 0 32 32" fill="none" xmlns="http://www.w3.org/2000/svg">
<path d="M16 0C7.15687 0 0 7.15606 0 16C0 24.8431 7.15606 32 16 32C24.8431 32 32 24.8439 32 16C32 7.15687 24.8439 0 16 0ZM16 29.8667C8.35394 29.8667 2.13331 23.6461 2.13331 16C2.13331 8.35388 8.35394 2.13331 16 2.13331C23.6461 2.13331 29.8667 8.35394 29.8667 16C29.8667 23.6461 23.6461 29.8667 16 29.8667Z" fill="#0E1D37"/>
<path d="M15.9999 13.1108C15.4108 13.1108 14.9332 13.5884 14.9332 14.1775V23.1756C14.9332 23.7646 15.4108 24.2423 15.9999 24.2423C16.589 24.2423 17.0666 23.7647 17.0666 23.1756V14.1775C17.0665 13.5883 16.589 13.1108 15.9999 13.1108Z" fill="#0E1D37"/>
<path d="M16.0001 7.75757C14.8238 7.75757 13.8668 8.71457 13.8668 9.89089C13.8668 11.0672 14.8238 12.0242 16.0001 12.0242C17.1764 12.0242 18.1334 11.0672 18.1334 9.89089C18.1334 8.71457 17.1764 7.75757 16.0001 7.75757Z" fill="#0E1D37"/>
</svg>
