<svg width="14" height="14" viewBox="0 0 14 14" fill="none" xmlns="http://www.w3.org/2000/svg">
<g clip-path="url(#clip0_0_149)">
<path d="M3.1108 7.54629L9.34093 13.7763C9.48503 13.9206 9.67738 14 9.88249 14C10.0876 14 10.2799 13.9206 10.424 13.7763L10.8828 13.3176C11.1814 13.0188 11.1814 12.533 10.8828 12.2345L5.65125 7.00292L10.8887 1.76549C11.0327 1.62128 11.1123 1.42904 11.1123 1.22405C11.1123 1.01883 11.0327 0.826588 10.8887 0.682263L10.4298 0.223682C10.2856 0.0794725 10.0934 2.66138e-05 9.88829 2.65959e-05C9.68319 2.65779e-05 9.49084 0.0794724 9.34674 0.223682L3.1108 6.45942C2.96637 6.60409 2.88704 6.79724 2.88749 7.00257C2.88704 7.2087 2.96637 7.40174 3.1108 7.54629Z" fill="white"/>
</g>
<defs>
<clipPath id="clip0_0_149">
<rect width="14" height="14" fill="white" transform="translate(14 14) rotate(-180)"/>
</clipPath>
</defs>
</svg>
