<svg width="18" height="18" viewBox="0 0 18 18" fill="none" xmlns="http://www.w3.org/2000/svg">
<g clip-path="url(#clip0_1004_304)">
<path d="M13.2094 11.6187C14.0951 10.4091 14.6249 8.9234 14.6249 7.31273C14.6249 3.28076 11.3444 0.000244141 7.31245 0.000244141C3.28048 0.000244141 0 3.28076 0 7.31273C0 11.3447 3.28052 14.6252 7.31248 14.6252C8.92315 14.6252 10.409 14.0953 11.6186 13.2096L16.4092 18.0001L18 16.4093C18 16.4093 13.2094 11.6187 13.2094 11.6187ZM7.31248 12.3752C4.52086 12.3752 2.25001 10.1044 2.25001 7.31273C2.25001 4.52111 4.52086 2.25025 7.31248 2.25025C10.1041 2.25025 12.375 4.52111 12.375 7.31273C12.375 10.1044 10.1041 12.3752 7.31248 12.3752Z" fill="#326297"/>
</g>
<defs>
<clipPath id="clip0_1004_304">
<rect width="18" height="18" fill="white"/>
</clipPath>
</defs>
</svg>
