<svg width="14" height="14" viewBox="0 0 14 14" fill="none" xmlns="http://www.w3.org/2000/svg">
<g clip-path="url(#clip0_0_155)">
<path d="M10.8892 6.45371L4.65907 0.223657C4.51497 0.0794466 4.32262 2.5089e-07 4.11751 2.15028e-07C3.91241 1.79167e-07 3.72006 0.0794465 3.57596 0.223656L3.11716 0.682351C2.81861 0.981242 2.81861 1.46703 3.11715 1.76546L8.34875 6.99709L3.11135 12.2345C2.96725 12.3787 2.88769 12.571 2.88769 12.776C2.88769 12.9812 2.96725 13.1734 3.11135 13.3177L3.57015 13.7763C3.71436 13.9205 3.9066 14 4.11171 14C4.31681 14 4.50916 13.9205 4.65326 13.7763L10.8892 7.54058C11.0336 7.39591 11.113 7.20276 11.1125 6.99743C11.113 6.7913 11.0336 6.59826 10.8892 6.45371Z" fill="white"/>
</g>
<defs>
<clipPath id="clip0_0_155">
<rect width="14" height="14" fill="white"/>
</clipPath>
</defs>
</svg>
