<svg width="30" height="30" viewBox="0 0 30 30" fill="none" xmlns="http://www.w3.org/2000/svg">
<path d="M14.9999 0C23.2837 0 30 6.71625 30 15.0001C30 23.2848 23.2838 30 14.9999 30C6.71614 30 0 23.2847 0 15.0001C0 6.71625 6.71532 0 14.9999 0Z" fill="#8E98A6"/>
<path fill-rule="evenodd" clip-rule="evenodd" d="M15.2261 1C15.164 6.55485 14.7995 9.66384 12.7301 11.7299C10.6638 13.7995 7.55504 14.1638 2 14.2261V15.0323C7.55504 15.0977 10.6638 15.4591 12.7301 17.5283C14.7667 19.5648 15.151 22.6082 15.2237 28H16.0349C16.1074 22.6082 16.4919 19.5648 18.5285 17.5283C20.5651 15.4919 23.6082 15.1074 29 15.0347V14.2236C23.6082 14.151 20.5651 13.7665 18.5285 11.7299C16.4593 9.66384 16.0979 6.55485 16.0323 1H15.2261Z" fill="white"/>
</svg>
