<svg width="30" height="30" viewBox="0 0 30 30" fill="none" xmlns="http://www.w3.org/2000/svg">
<path d="M15 30C23.2843 30 30 23.2843 30 15C30 6.71573 23.2843 0 15 0C6.71573 0 0 6.71573 0 15C0 23.2843 6.71573 30 15 30Z" fill="white" fill-opacity="0.5"/>
<path d="M6.86353 13.675L21.326 8.09877C21.9973 7.85627 22.5835 8.26252 22.366 9.27752L22.3673 9.27626L19.9048 20.8775C19.7223 21.7 19.2335 21.9 18.5498 21.5125L14.7998 18.7488L12.991 20.4913C12.791 20.6913 12.6223 20.86 12.2348 20.86L12.501 17.0438L19.451 10.765C19.7535 10.4988 19.3835 10.3488 18.9848 10.6138L10.396 16.0213L6.69353 14.8663C5.88978 14.6113 5.87228 14.0625 6.86353 13.675Z" fill="white"/>
</svg>
