<svg width="30" height="30" viewBox="0 0 30 30" fill="none" xmlns="http://www.w3.org/2000/svg">
<path d="M15 30C23.2843 30 30 23.2843 30 15C30 6.71573 23.2843 0 15 0C6.71573 0 0 6.71573 0 15C0 23.2843 6.71573 30 15 30Z" fill="#8E98A6"/>
<path d="M6.86335 13.675L21.3258 8.09877C21.9971 7.85627 22.5833 8.26252 22.3658 9.27752L22.3671 9.27626L19.9046 20.8775C19.7221 21.7 19.2333 21.9 18.5496 21.5125L14.7996 18.7488L12.9908 20.4913C12.7908 20.6913 12.6221 20.86 12.2346 20.86L12.5008 17.0438L19.4508 10.765C19.7533 10.4988 19.3833 10.3488 18.9846 10.6138L10.3958 16.0213L6.69335 14.8663C5.8896 14.6113 5.8721 14.0625 6.86335 13.675Z" fill="white"/>
</svg>
