<svg width="30" height="30" viewBox="0 0 30 30" fill="none" xmlns="http://www.w3.org/2000/svg">
<path d="M15 30C23.2843 30 30 23.2843 30 15C30 6.71573 23.2843 0 15 0C6.71573 0 0 6.71573 0 15C0 23.2843 6.71573 30 15 30Z" fill="#8E98A6"/>
<path d="M15.3485 21C8.85691 21 5.15428 16.4955 5 9H8.25172C8.35853 14.5015 10.7557 16.8318 12.6545 17.3123V9H15.7165V13.7447C17.5916 13.5405 19.5613 11.3784 20.2259 9H23.2878C22.7775 11.9309 20.6414 14.0931 19.1223 14.982C20.6414 15.7027 23.0743 17.5886 24 21H20.6295C19.9056 18.7177 18.1019 16.952 15.7165 16.7117V21H15.3485Z" fill="white"/>
</svg>
