<svg width="30" height="30" viewBox="0 0 30 30" fill="none" xmlns="http://www.w3.org/2000/svg">
<path d="M15 0C6.717 0 0 6.717 0 15C0 23.283 6.717 30 15 30C23.283 30 30 23.283 30 15C30 6.717 23.283 0 15 0Z" fill="#8E98A6"/>
<path fill-rule="evenodd" clip-rule="evenodd" d="M13.9081 19.3096C13.5243 20.81 11.0127 23.9895 13.0803 24.8731C14.8057 25.6101 15.4579 22.9972 16.5347 20.6414C17.325 20.9393 18.2842 21.4473 19.0752 21.8438C19.9956 22.3047 21.2316 22.8538 21.8323 21.5969C22.6994 19.7833 20.0317 19.0279 17.7834 17.9078C18.1149 17.4625 21.4083 15.3942 19.7486 13.8071C17.8034 11.9464 17.422 16.3784 12.8363 16.4007C11.6244 16.4063 10.7621 15.8544 10.0521 16.8625C9.46041 17.7023 9.94458 18.8262 10.7452 19.1152C11.5425 19.4029 13.0429 19.3958 13.9081 19.3096ZM12.186 5.05791C9.8002 5.42503 7.58286 7.76061 8.06703 10.7701C9.1336 17.4011 18.7906 15.7635 17.6614 9.12579C17.2446 6.67471 14.9957 4.62574 12.186 5.05791ZM12.1544 8.12298C9.71688 9.15293 11.0822 12.8408 13.5832 11.9551C16.0347 11.0873 14.7257 7.03637 12.1544 8.12298Z" fill="#FEFEFE"/>
</svg>
