<svg width="169" height="110" viewBox="0 0 169 110" fill="none" xmlns="http://www.w3.org/2000/svg">
<rect width="169" height="110" rx="3" fill="#725BB3"/>
<g clip-path="url(#clip0_7185_87469)">
<g opacity="0.8">
<path d="M88.1723 42.7549L88.3988 44.1654L89.6878 44.7799L88.4162 45.4292L88.2295 46.8447L87.2192 45.8347L85.8157 46.0959L86.4602 44.8247L85.7783 43.5709L87.1893 43.7923L88.1723 42.7549Z" fill="#725BB3"/>
<path d="M158.251 27.6953C160.461 27.6953 162.253 25.9044 162.253 23.6953C162.253 21.4862 160.461 19.6953 158.251 19.6953C156.041 19.6953 154.25 21.4862 154.25 23.6953C154.25 25.9044 156.041 27.6953 158.251 27.6953Z" fill="white" fill-opacity="0.5"/>
<path d="M160.364 43.9591C160.111 44.4306 159.723 44.8164 159.251 45.0678C158.778 45.3191 158.241 45.4247 157.709 45.3712C157.176 45.3177 156.671 45.1075 156.258 44.7671C155.845 44.4268 155.542 43.9716 155.388 43.4592C155.234 42.9467 155.235 42.4 155.391 41.8882C155.548 41.3765 155.853 40.9226 156.267 40.584C156.682 40.2454 157.187 40.0373 157.72 39.9861C158.253 39.9348 158.789 40.0427 159.261 40.2961C159.893 40.6357 160.364 41.2124 160.571 41.8993C160.778 42.5862 160.703 43.3271 160.364 43.9591V43.9591Z" stroke="white" stroke-width="0.417922" stroke-miterlimit="10"/>
<path d="M137.393 73.3242C137.148 73.7789 136.774 74.1509 136.319 74.3933C135.863 74.6357 135.345 74.7375 134.832 74.686C134.318 74.6345 133.831 74.432 133.432 74.104C133.034 73.776 132.741 73.3372 132.592 72.8431C132.443 72.349 132.443 71.8218 132.594 71.328C132.744 70.8342 133.037 70.3961 133.437 70.069C133.836 69.7418 134.323 69.5403 134.837 69.49C135.351 69.4396 135.868 69.5427 136.324 69.7861C136.933 70.115 137.388 70.6718 137.588 71.3347C137.788 71.9977 137.718 72.713 137.393 73.3242Z" fill="white" fill-opacity="0.96"/>
<path d="M30.8525 87.3417C30.4874 88.0154 29.9305 88.5657 29.2523 88.9229C28.5742 89.28 27.8052 89.4279 27.0429 89.3479C26.2805 89.2679 25.5591 88.9635 24.9699 88.4734C24.3807 87.9832 23.9503 87.3293 23.7331 86.5944C23.516 85.8595 23.5218 85.0768 23.75 84.3452C23.9781 83.6137 24.4183 82.9663 25.0148 82.485C25.6112 82.0037 26.3371 81.7101 27.1006 81.6415C27.864 81.5729 28.6307 81.7323 29.3034 82.0996C30.2029 82.5906 30.8711 83.4181 31.1614 84.4006C31.4518 85.3832 31.3407 86.4408 30.8525 87.3417V87.3417Z" stroke="white" stroke-opacity="0.5" stroke-miterlimit="10"/>
<path d="M30.5406 12.6216C30.1296 13.4172 29.4903 14.0721 28.7048 14.5024C27.9193 14.9327 27.0231 15.1188 26.1311 15.037C25.2391 14.9552 24.3919 14.6091 23.6978 14.0431C23.0037 13.4771 22.4944 12.7168 22.235 11.8597C21.9757 11.0027 21.978 10.0877 22.2419 9.23198C22.5058 8.37627 23.0191 7.61875 23.7162 7.0564C24.4133 6.49404 25.2624 6.15243 26.1548 6.07531C27.0472 5.99819 27.9423 6.18906 28.7256 6.62349C29.7489 7.19107 30.5108 8.13487 30.8497 9.25467C31.1885 10.3745 31.0777 11.5822 30.5406 12.6216Z" fill="white" fill-opacity="0.3"/>
<path d="M38.2176 35.207C37.9701 35.6723 37.5899 36.0537 37.1253 36.3027C36.6606 36.5516 36.1324 36.657 35.6078 36.6055C35.0831 36.5539 34.5856 36.3477 34.1783 36.0131C33.7711 35.6784 33.4724 35.2304 33.3203 34.7258C33.1681 34.2212 33.1693 33.6828 33.3237 33.1789C33.4781 32.675 33.7788 32.2283 34.1876 31.8954C34.5963 31.5626 35.0948 31.3587 35.6197 31.3095C36.1446 31.2603 36.6722 31.368 37.1358 31.6191C37.7531 31.9535 38.2133 32.5182 38.4159 33.1903C38.6186 33.8624 38.5473 34.5873 38.2176 35.207V35.207Z" stroke="white" stroke-width="0.417922" stroke-miterlimit="10"/>
<path d="M126.459 10.3977C126.177 10.9204 125.746 11.3476 125.221 11.6254C124.696 11.9031 124.1 12.0188 123.509 11.9578C122.918 11.8968 122.359 11.6618 121.902 11.2827C121.444 10.9035 121.11 10.3973 120.941 9.82803C120.772 9.25877 120.775 8.65212 120.951 8.08492C121.127 7.51772 121.468 7.01549 121.929 6.64185C122.391 6.26821 122.953 6.03997 123.545 5.98603C124.137 5.9321 124.731 6.05489 125.253 6.33887C125.95 6.71835 126.468 7.35853 126.694 8.11924C126.92 8.87995 126.836 9.69922 126.459 10.3977V10.3977Z" stroke="#FFB800" stroke-width="1.42" stroke-miterlimit="10"/>
<path d="M14.8994 24.0919L17.6569 23.4623L16.4784 26.0312L16.3686 26.2705L16.5038 26.4965L17.9539 28.9195L15.1466 28.5921L14.8851 28.5616L14.712 28.76L12.8525 30.8912L12.2953 28.1233L12.2435 27.8658L12.0021 27.7624L9.40028 26.6471L11.8654 25.2596L12.0947 25.1305L12.1181 24.8683L12.369 22.0585L14.4496 23.9724L14.6431 24.1504L14.8994 24.0919Z" stroke="white"/>
<path d="M139.386 17.457L139.262 21.0713L142.166 23.221L138.692 24.2187L137.544 27.6446L135.522 24.647L131.906 24.6127L134.134 21.765L133.05 18.322L136.443 19.5553L139.386 17.457Z" fill="white"/>
<path d="M118.384 91.2264L117.646 94.6115L117.613 94.7659L117.721 94.8809L120.092 97.402L116.65 97.7482L116.493 97.7639L116.417 97.9018L114.746 100.933L113.352 97.7631L113.289 97.6187L113.134 97.5892L109.736 96.9417L112.319 94.6408L112.437 94.5357L112.417 94.379L111.981 90.9453L114.972 92.6886L115.108 92.768L115.251 92.7009L118.384 91.2264Z" stroke="white" stroke-width="0.6"/>
<path d="M151.78 97.2051L152.69 100.761L156.136 102.024L153.033 103.994L152.892 107.661L150.072 105.317L146.535 106.318L147.889 102.903L145.848 99.8519L149.506 100.084L151.78 97.2051Z" fill="white" fill-opacity="0.4"/>
<path d="M50.3403 96.3223L48.205 99.7525L49.8181 103.462L45.8926 102.484L42.8715 105.168L42.5825 101.141L39.0952 99.0907L42.8436 97.5713L43.7107 93.6191L46.3122 96.7138L50.3403 96.3223Z" fill="white" fill-opacity="0.54"/>
<path d="M160.166 72.8161C159.669 73.7436 158.908 74.5028 157.979 74.9978C157.05 75.4928 155.995 75.7013 154.948 75.597C153.9 75.4927 152.907 75.0802 152.095 74.4117C151.282 73.7433 150.685 72.8488 150.381 71.8415C150.076 70.8342 150.078 69.7593 150.384 68.7526C150.691 67.746 151.289 66.8529 152.104 66.1863C152.918 65.5197 153.912 65.1094 154.96 65.0075C156.007 64.9055 157.062 65.1164 157.99 65.6135C158.607 65.9424 159.153 66.39 159.596 66.9305C160.04 67.4709 160.372 68.0936 160.575 68.7628C160.777 69.4321 160.845 70.1346 160.775 70.8302C160.705 71.5258 160.498 72.2007 160.166 72.8161Z" fill="#FFB800" fill-opacity="0.5"/>
<path d="M137.608 90.574C137.377 91.0018 137.024 91.3516 136.594 91.5793C136.165 91.8069 135.677 91.9022 135.193 91.8529C134.709 91.8036 134.251 91.6121 133.876 91.3025C133.501 90.993 133.226 90.5793 133.087 90.1138C132.947 89.6483 132.948 89.1518 133.09 88.6871C133.233 88.2224 133.51 87.8102 133.886 87.5027C134.263 87.1952 134.722 87.0062 135.207 86.9596C135.691 86.913 136.178 87.0108 136.606 87.2408C136.891 87.3938 137.143 87.6014 137.348 87.8518C137.552 88.1022 137.705 88.3904 137.798 88.7L138.756 88.4123L137.798 88.7C137.891 89.0095 137.922 89.3344 137.89 89.656C137.857 89.9776 137.761 90.2895 137.608 90.574Z" stroke="#FFB800" stroke-width="2"/>
<path d="M14.47 57.9257C16.6159 57.9257 18.3555 56.1867 18.3555 54.0415C18.3555 51.8963 16.6159 50.1572 14.47 50.1572C12.3241 50.1572 10.5845 51.8963 10.5845 54.0415C10.5845 56.1867 12.3241 57.9257 14.47 57.9257Z" stroke="white" stroke-opacity="0.31" stroke-width="2" stroke-miterlimit="10"/>
<path d="M17.4157 68.7979L18.1178 71.8709L21.0463 73.0393L18.3362 74.6571L18.1307 77.8029L15.7545 75.7229L12.6976 76.5018L13.9435 73.6043L12.2566 70.9336L15.3991 71.2203L17.4157 68.7979Z" fill="white"/>
<path d="M13.1908 97.0954C12.8434 97.7429 12.3116 98.2728 11.6628 98.6181C11.0139 98.9634 10.2772 99.1084 9.54588 99.0349C8.81454 98.9614 8.12144 98.6727 7.55433 98.2052C6.98722 97.7378 6.57159 97.1126 6.36004 96.4089C6.1485 95.7052 6.15056 94.9546 6.36595 94.2521C6.58134 93.5496 7.00039 92.9267 7.57006 92.4624C8.13972 91.998 8.83439 91.7131 9.56612 91.6436C10.2979 91.5741 11.0338 91.7232 11.6807 92.072C12.1102 92.3023 12.4901 92.615 12.7985 92.9923C13.107 93.3695 13.3379 93.8039 13.4782 94.2705C13.6185 94.7371 13.6653 95.2268 13.616 95.7116C13.5667 96.1963 13.4222 96.6665 13.1908 97.0954Z" fill="#FFB800"/>
<path d="M50.1668 16.4089C50.1668 18.9327 48.1202 20.9789 45.5951 20.9789C43.0701 20.9789 41.0234 18.9327 41.0234 16.4089C41.0234 13.8851 43.0701 11.8389 45.5951 11.8389C48.1201 11.8389 50.1668 13.8851 50.1668 16.4089Z" stroke="#FFB800" stroke-opacity="0.5"/>
</g>
<path d="M143.533 46.4333C142.588 46.6741 126.336 49.0124 126.336 49.0124C126.336 49.0124 141.711 43.256 142.656 43.0151C142.881 42.9542 143.117 42.9387 143.348 42.9695C143.58 43.0003 143.803 43.0767 144.005 43.1944C144.207 43.3121 144.383 43.4686 144.524 43.655C144.665 43.8414 144.767 44.0539 144.826 44.2802C144.884 44.5065 144.896 44.742 144.862 44.9732C144.829 45.2043 144.749 45.4265 144.629 45.6268C144.509 45.8271 144.35 46.0015 144.162 46.1399C143.974 46.2784 143.76 46.3781 143.533 46.4333Z" fill="white"/>
<path d="M136.071 56.6008C135.497 56.3058 126.403 50.3193 126.403 50.3193C126.403 50.3193 136.566 54.2328 137.137 54.5196C137.274 54.5898 137.396 54.6862 137.495 54.8034C137.594 54.9205 137.67 55.0561 137.717 55.2024C137.764 55.3486 137.782 55.5027 137.769 55.6558C137.756 55.8089 137.714 55.9581 137.644 56.0947C137.573 56.2314 137.477 56.3529 137.36 56.4523C137.243 56.5517 137.107 56.627 136.961 56.674C136.814 56.721 136.66 56.7387 136.507 56.7262C136.354 56.7136 136.205 56.671 136.068 56.6008L136.071 56.6008Z" fill="white"/>
<path d="M135.101 40.6661C134.614 41.091 125.696 47.3346 125.696 47.3346C125.696 47.3346 133.073 39.3292 133.561 38.9043C133.794 38.7001 134.1 38.5971 134.409 38.6179C134.719 38.6387 135.008 38.7816 135.212 39.0153C135.416 39.2489 135.519 39.5541 135.499 39.8637C135.478 40.1733 135.335 40.4619 135.101 40.6661Z" fill="white"/>
<path d="M33.2109 57.9376C34.1356 57.6712 49.164 51.7471 49.164 51.7471C49.164 51.7471 33.2136 54.3336 32.289 54.5893C31.8529 54.7185 31.4848 55.0136 31.264 55.4111C31.0431 55.8086 30.987 56.2769 31.1077 56.7153C31.2284 57.1538 31.5163 57.5274 31.9096 57.7559C32.3029 57.9844 32.7701 58.0497 33.2109 57.9376Z" fill="white"/>
<path d="M44.555 62.985C44.9014 62.4523 49.7483 52.8975 49.7483 52.8975C49.7483 52.8975 42.9695 61.195 42.6231 61.7277C42.4726 61.9836 42.4265 62.2876 42.4945 62.5766C42.5625 62.8655 42.7393 63.1171 42.9881 63.2791C43.237 63.441 43.5387 63.5008 43.8305 63.4461C44.1224 63.3913 44.3818 63.2262 44.555 62.985Z" fill="white"/>
<path d="M37.5977 48.8942C38.2213 49.022 48.893 50.0023 48.893 50.0023C48.893 50.0023 38.6769 46.7632 38.0534 46.638C37.7541 46.5776 37.4431 46.6385 37.1887 46.8074C36.9344 46.9762 36.7575 47.2392 36.6971 47.5383C36.6367 47.8375 36.6976 48.1485 36.8665 48.4027C37.0354 48.657 37.2984 48.8338 37.5977 48.8942Z" fill="white"/>
<path d="M90.6008 35.1487C90.6008 35.1487 100.047 26.8054 105.289 23.5632C107.551 22.1593 109.967 20.5657 112.62 21.5763C111.453 20.0992 109.418 18.4232 107.764 17.0765C105.296 15.0576 103.565 15.412 101.767 17.7968C98.1646 22.5663 90.6008 35.1487 90.6008 35.1487Z" stroke="#F7F4FF" stroke-width="2.7" stroke-linecap="round" stroke-linejoin="round"/>
<path d="M105.291 23.5627C107.462 22.2159 109.772 20.6977 112.299 21.466C112.379 21.5003 112.457 21.5369 112.528 21.5734C113.294 21.9461 114.053 23.5169 113.084 25.8811C111.231 30.3855 99.589 35.2922 90.79 35.1504C90.79 35.1504 90.9776 34.9218 91.2955 34.5514C93.5736 32.5622 100.906 26.2744 105.291 23.5627Z" stroke="#F7F4FF" stroke-width="2.7" stroke-linecap="round" stroke-linejoin="round"/>
<path d="M91.1594 35.4134C93.2179 36.0193 101.559 37.302 111.875 35.4432C117.719 34.3891 121.481 32.1347 123.517 31.1172" stroke="#F7F4FF" stroke-width="2.7" stroke-linecap="round" stroke-linejoin="round"/>
<path d="M90.7274 35.1872C90.7274 35.1872 87.7083 22.9524 85.2518 17.2957C84.1905 14.8538 83.1133 12.1695 80.3572 11.4904C82.6238 11.1428 84.5313 10.7656 85.6406 10.6695C89.9086 10.2991 91.3129 11.5841 91.4319 14.5565C91.672 20.5379 90.7274 35.1872 90.7274 35.1872Z" stroke="#F7F4FF" stroke-width="2.7" stroke-linecap="round" stroke-linejoin="round"/>
<path d="M85.2504 17.2953C84.2326 14.954 83.1919 12.3886 80.676 11.5792C80.5913 11.5632 80.5067 11.5472 80.4244 11.5357C79.5827 11.4077 78.0617 12.2651 77.515 14.7619C76.4743 19.52 83.2559 30.1818 90.5682 35.0657C90.5682 35.0657 90.5453 34.773 90.4927 34.286C89.7539 31.3685 87.3066 22.0283 85.2504 17.2953Z" stroke="#F7F4FF" stroke-width="2.7" stroke-linecap="round" stroke-linejoin="round"/>
<path d="M90.1166 35.0884C88.0741 34.4024 81.7362 32.6144 72.3838 21.1158C67.9786 15.6992 63.3562 14.2885 59.9734 17.046" stroke="#F7F4FF" stroke-width="2.7" stroke-linecap="round" stroke-linejoin="round"/>
<path d="M67.4558 57.4168L70.2096 48.7141L75.6955 50.45L75.1718 52.1051L71.648 50.9901L71.0102 53.0056L74.0268 53.9601L73.503 55.6152L70.4865 54.6607L69.4179 58.0376L67.4558 57.4168ZM74.7224 59.7162L77.4763 51.0135L80.613 52.0061C81.0757 52.1525 81.4932 52.3336 81.8655 52.5492C82.2466 52.7678 82.5547 53.0317 82.7897 53.341C83.0274 53.6414 83.1804 53.9932 83.2486 54.3966C83.3167 54.8 83.2691 55.2597 83.1058 55.7758C82.9031 56.4165 82.5932 56.9009 82.1761 57.229C81.7707 57.5511 81.2998 57.7398 80.7634 57.7952L81.6365 61.9041L79.4342 61.2072L78.7583 57.5425L77.6771 57.2004L76.6845 60.3371L74.7224 59.7162ZM78.1713 55.6387L79.1857 55.9597C79.7018 56.123 80.1271 56.1401 80.4617 56.011C80.8079 55.8759 81.0486 55.5947 81.1838 55.1676C81.3189 54.7405 81.2753 54.3987 81.053 54.1424C80.8395 53.8888 80.4747 53.6804 79.9586 53.5171L78.9442 53.1961L78.1713 55.6387ZM83.1753 62.391L85.9291 53.6883L91.3749 55.4115L90.8512 57.0667L87.3675 55.9643L86.8142 57.7128L89.7774 58.6505L89.2578 60.2922L86.2947 59.3546L85.6611 61.3567L89.2783 62.5014L88.7546 64.1565L83.1753 62.391ZM90.7548 64.7894L93.5086 56.0867L98.9544 57.81L98.4307 59.4651L94.947 58.3627L94.3937 60.1112L97.3569 61.0489L96.8373 62.6907L93.8742 61.753L93.2406 63.7552L96.8578 64.8998L96.3341 66.5549L90.7548 64.7894ZM64.4852 72.3861C63.889 72.1974 63.358 71.9266 62.8921 71.5736C62.438 71.2145 62.0787 70.7876 61.8143 70.2927C61.5499 69.7979 61.3938 69.2395 61.3459 68.6174C61.3098 67.9892 61.4071 67.3103 61.638 66.5806C61.8661 65.8598 62.1801 65.2543 62.5799 64.7641C62.9826 64.265 63.4372 63.8802 63.9437 63.6098C64.4592 63.3421 65.0073 63.1876 65.5882 63.1463C66.1691 63.1049 66.7487 63.1758 67.3271 63.3588C67.9589 63.5587 68.4651 63.8462 68.8457 64.2211C69.2263 64.5961 69.5125 64.9755 69.7044 65.3592L68.2796 66.2887C68.119 66.0225 67.9353 65.7833 67.7284 65.571C67.5215 65.3586 67.2312 65.1933 66.8574 65.0751C66.5193 64.9681 66.1867 64.9363 65.8597 64.9796C65.5445 65.0169 65.2465 65.1233 64.9658 65.2988C64.6851 65.4743 64.432 65.7173 64.2065 66.0277C63.9899 66.341 63.8126 66.7156 63.6746 67.1516C63.3903 68.0504 63.3694 68.8123 63.6122 69.4373C63.8666 70.0562 64.4032 70.4952 65.2219 70.7543C65.3998 70.8106 65.5804 70.8432 65.7635 70.8523C65.9467 70.8613 66.1057 70.8382 66.2407 70.783L66.7137 69.288L65.2722 68.8319L65.779 67.2301L68.9558 68.2354L67.6887 72.2397C67.2932 72.4376 66.8139 72.56 66.2508 72.607C65.6878 72.654 65.0992 72.5804 64.4852 72.3861ZM69.4705 73.7874L72.2243 65.0847L74.1864 65.7056L71.4326 74.4082L69.4705 73.7874ZM73.7522 75.1422L76.506 66.4396L81.9919 68.1755L81.4682 69.8306L77.9444 68.7156L77.3066 70.7311L80.3232 71.6856L79.7994 73.3407L76.7829 72.3862L75.7143 75.7631L73.7522 75.1422ZM82.714 77.9781L84.9441 70.9305L82.5549 70.1745L83.0786 68.5194L89.8325 70.6565L89.3088 72.3117L86.9196 71.5556L84.6894 78.6032L82.714 77.9781ZM90.9692 80.7665C90.3997 80.5863 89.8626 80.3038 89.3579 79.9189C88.8648 79.528 88.462 79.053 88.1494 78.494L89.6972 77.5006C89.9242 77.8661 90.1978 78.1926 90.5181 78.4799C90.8472 78.77 91.1942 78.9728 91.559 79.0883C91.9683 79.2178 92.2948 79.2379 92.5385 79.1486C92.791 79.0621 92.9581 78.8898 93.0397 78.6317C93.082 78.4983 93.0874 78.3727 93.0561 78.2551C93.0337 78.1403 92.9759 78.0291 92.8828 77.9213C92.8013 77.8074 92.6904 77.694 92.5499 77.581C92.4212 77.4619 92.276 77.3328 92.1145 77.1936L91.132 76.3541C90.9377 76.1947 90.7563 76.01 90.5878 75.8001C90.4282 75.5929 90.2934 75.3692 90.1835 75.1288C90.0852 74.8823 90.0266 74.6191 90.0076 74.3389C89.9913 74.0499 90.0339 73.7452 90.1353 73.4249C90.2479 73.0689 90.4291 72.7592 90.679 72.4956C90.9316 72.2231 91.2325 72.0148 91.5815 71.8708C91.9334 71.7178 92.3173 71.6337 92.7333 71.6185C93.1582 71.6061 93.5975 71.6717 94.0513 71.8153C94.5585 71.9758 95.0259 72.2314 95.4534 72.582C95.8897 72.9355 96.2356 73.3582 96.4911 73.8502L95.0972 74.7747C94.8829 74.4622 94.6516 74.203 94.4035 73.9972C94.1582 73.7825 93.862 73.6203 93.5149 73.5105C93.1768 73.4035 92.8829 73.3888 92.6331 73.4664C92.3951 73.5379 92.2367 73.6983 92.1579 73.9474C92.1156 74.0809 92.1102 74.2064 92.1415 74.324C92.1845 74.4355 92.2512 74.5496 92.3415 74.6663C92.4436 74.7769 92.5634 74.8932 92.7011 75.015C92.8415 75.128 92.9925 75.2541 93.1541 75.3933L94.1317 76.2019C94.598 76.5845 94.9233 77.0104 95.1076 77.4799C95.3008 77.9522 95.3002 78.4953 95.1059 79.1093C94.9905 79.4742 94.805 79.7973 94.5496 80.0787C94.3058 80.3539 94.0022 80.5711 93.6386 80.7302C93.2867 80.8831 92.8821 80.9705 92.425 80.9922C91.9706 81.0051 91.4853 80.9299 90.9692 80.7665Z" fill="white"/>
<path d="M59.0531 25.9144C59.1515 25.598 59.4878 25.4213 59.8042 25.5197L120.571 44.4225C120.887 44.5209 121.064 44.8572 120.966 45.1736L115.313 63.3433L110.857 61.9571C109.592 61.5634 108.246 62.2703 107.853 63.5359L96.6361 99.5942L48.2192 84.5332L59.4359 48.4749C59.8296 47.2092 59.1228 45.864 57.8571 45.4703L53.401 44.0841L59.0531 25.9144Z" stroke="white" stroke-width="2.8"/>
<mask id="path-35-inside-1_7185_87469" fill="white">
<rect x="68.3801" y="79.584" width="15.143" height="12.1144" rx="1" transform="rotate(17.2794 68.3801 79.584)"/>
</mask>
<rect x="68.3801" y="79.584" width="15.143" height="12.1144" rx="1" transform="rotate(17.2794 68.3801 79.584)" fill="#FFB800" stroke="white" stroke-width="3.6" mask="url(#path-35-inside-1_7185_87469)"/>
<path d="M83.9356 32.6079C83.952 32.5552 84.0081 32.5258 84.0608 32.5422L96.6107 36.446C96.6634 36.4625 96.6929 36.5185 96.6765 36.5712L93.0305 48.2918C93.0222 48.3186 93.0115 48.3305 93.0031 48.3378C92.9923 48.3471 92.9755 48.3561 92.9539 48.3603C92.9323 48.3644 92.9134 48.3622 92.8999 48.3576C92.8895 48.354 92.8751 48.3469 92.8574 48.325L88.7234 43.2255C88.2404 42.6297 87.4464 42.3827 86.7107 42.5994L80.4135 44.4541C80.3865 44.462 80.3706 44.4597 80.36 44.4568C80.3462 44.4529 80.3294 44.444 80.314 44.4283C80.2985 44.4127 80.2899 44.3957 80.2862 44.3819C80.2834 44.3712 80.2814 44.3553 80.2897 44.3285L83.9356 32.6079Z" fill="#FFB800" stroke="white" stroke-width="1.8"/>
</g>
<defs>
<clipPath id="clip0_7185_87469">
<rect width="169" height="110" fill="white"/>
</clipPath>
</defs>
</svg>
